<svg width="36" height="34" viewBox="0 0 36 34" fill="none" xmlns="http://www.w3.org/2000/svg">
<path d="M18.2924 8.50274L25.9614 0.380533C26.846 -0.556362 28.3773 0.380534 27.9536 1.60091L24.3295 12.0203C24.2742 12.1791 24.2529 12.3478 24.2668 12.5154C24.2808 12.683 24.3296 12.8458 24.4103 12.9931C24.491 13.1405 24.6017 13.2692 24.7351 13.3708C24.8685 13.4724 25.0218 13.5446 25.1848 13.5828L35.0772 15.9012C36.3066 16.1891 36.3066 17.9471 35.0772 18.2358L25.2993 20.5271C25.128 20.5671 24.9677 20.6447 24.8298 20.7543C24.6919 20.8639 24.5798 21.0028 24.5015 21.161C24.4233 21.3192 24.3808 21.4928 24.3771 21.6694C24.3735 21.846 24.4088 22.0213 24.4804 22.1826L28.4356 31.0842C28.9533 32.2482 27.5438 33.3111 26.5754 32.487L18.4506 25.5742C18.3172 25.4607 18.1606 25.378 17.9919 25.3321C17.8231 25.2861 17.6464 25.2779 17.4742 25.3081C17.302 25.3383 17.1385 25.4061 16.9952 25.5068C16.8519 25.6074 16.7324 25.7384 16.6451 25.8906L12.3428 33.396C11.7143 34.4948 10.0422 33.9901 10.1173 32.7265L10.7663 21.8376C10.7833 21.5614 10.7045 21.2879 10.5434 21.0636C10.3822 20.8392 10.1487 20.6779 9.88251 20.6069L0.88853 18.227C-0.297153 17.9134 -0.297153 16.2228 0.88853 15.9093L9.69146 13.5798C9.99382 13.4999 10.2528 13.3039 10.4127 13.034C10.5725 12.764 10.6204 12.4418 10.5461 12.1368L7.94284 1.49909C7.63876 0.258203 9.22186 -0.535851 10.0284 0.455983L16.5044 8.43461C16.6115 8.56627 16.7452 8.67354 16.8967 8.7493C17.0482 8.82506 17.214 8.86757 17.3831 8.87402C17.5522 8.88046 17.7208 8.85069 17.8775 8.78667C18.0343 8.72266 18.1757 8.62587 18.2924 8.50274Z" fill="currentColor"/>
</svg>
